<mxfile host="app.diagrams.net" modified="2023-08-25T02:37:16.361Z" agent="Mozilla/5.0 (Windows NT 10.0; Win64; x64; rv:109.0) Gecko/20100101 Firefox/116.0" etag="6rHR_fAG7YIXvP16KuWn" version="21.6.9">
  <diagram name="Page-1" id="8_IFPCRXsBgLcG05UPIM">
    <mxGraphModel dx="1330" dy="1387" grid="1" gridSize="10" guides="1" tooltips="1" connect="1" arrows="1" fold="1" page="1" pageScale="1" pageWidth="850" pageHeight="1100" math="0" shadow="0">
      <root>
        <mxCell id="0" />
        <mxCell id="1" parent="0" />
        <mxCell id="PoIcjcwzjBEKSIvmz-n4-20" style="edgeStyle=orthogonalEdgeStyle;rounded=0;orthogonalLoop=1;jettySize=auto;html=1;endArrow=none;endFill=0;startArrow=diamondThin;startFill=1;strokeWidth=2;" edge="1" parent="1" source="PoIcjcwzjBEKSIvmz-n4-3" target="PoIcjcwzjBEKSIvmz-n4-12">
          <mxGeometry relative="1" as="geometry" />
        </mxCell>
        <mxCell id="PoIcjcwzjBEKSIvmz-n4-3" value="Pessoa" style="swimlane;fontStyle=1;align=center;verticalAlign=top;childLayout=stackLayout;horizontal=1;startSize=26;horizontalStack=0;resizeParent=1;resizeParentMax=0;resizeLast=0;collapsible=1;marginBottom=0;whiteSpace=wrap;html=1;" vertex="1" parent="1">
          <mxGeometry x="170" y="360" width="160" height="114" as="geometry" />
        </mxCell>
        <mxCell id="PoIcjcwzjBEKSIvmz-n4-4" value="- nome : String&lt;br&gt;- id : String &lt;br&gt;- senha : String &lt;br&gt;" style="text;strokeColor=none;fillColor=none;align=left;verticalAlign=top;spacingLeft=4;spacingRight=4;overflow=hidden;rotatable=0;points=[[0,0.5],[1,0.5]];portConstraint=eastwest;whiteSpace=wrap;html=1;" vertex="1" parent="PoIcjcwzjBEKSIvmz-n4-3">
          <mxGeometry y="26" width="160" height="54" as="geometry" />
        </mxCell>
        <mxCell id="PoIcjcwzjBEKSIvmz-n4-5" value="" style="line;strokeWidth=1;fillColor=none;align=left;verticalAlign=middle;spacingTop=-1;spacingLeft=3;spacingRight=3;rotatable=0;labelPosition=right;points=[];portConstraint=eastwest;strokeColor=inherit;" vertex="1" parent="PoIcjcwzjBEKSIvmz-n4-3">
          <mxGeometry y="80" width="160" height="8" as="geometry" />
        </mxCell>
        <mxCell id="PoIcjcwzjBEKSIvmz-n4-6" value="renomear(String) : void" style="text;strokeColor=none;fillColor=none;align=left;verticalAlign=top;spacingLeft=4;spacingRight=4;overflow=hidden;rotatable=0;points=[[0,0.5],[1,0.5]];portConstraint=eastwest;whiteSpace=wrap;html=1;" vertex="1" parent="PoIcjcwzjBEKSIvmz-n4-3">
          <mxGeometry y="88" width="160" height="26" as="geometry" />
        </mxCell>
        <mxCell id="PoIcjcwzjBEKSIvmz-n4-12" value="&lt;p style=&quot;margin:0px;margin-top:4px;text-align:center;&quot;&gt;&lt;i&gt;&amp;lt;&amp;lt;Interface&amp;gt;&amp;gt;&lt;/i&gt;&lt;/p&gt;&lt;p style=&quot;margin:0px;margin-top:4px;text-align:center;&quot;&gt;&lt;b&gt;Usuario&lt;/b&gt;&lt;br&gt;&lt;/p&gt;&lt;hr size=&quot;1&quot;&gt;&lt;p style=&quot;margin:0px;margin-left:4px;&quot;&gt;&lt;br&gt;&lt;/p&gt;&lt;hr size=&quot;1&quot;&gt;&lt;p style=&quot;margin:0px;margin-left:4px;&quot;&gt;login() : void&lt;/p&gt;&lt;p style=&quot;margin:0px;margin-left:4px;&quot;&gt;logout() : void&lt;br&gt;&lt;/p&gt;" style="verticalAlign=top;align=left;overflow=fill;fontSize=12;fontFamily=Helvetica;html=1;whiteSpace=wrap;" vertex="1" parent="1">
          <mxGeometry x="490" y="362" width="190" height="110" as="geometry" />
        </mxCell>
        <mxCell id="PoIcjcwzjBEKSIvmz-n4-14" style="edgeStyle=orthogonalEdgeStyle;rounded=0;orthogonalLoop=1;jettySize=auto;html=1;exitX=0.5;exitY=1;exitDx=0;exitDy=0;" edge="1" parent="1" source="PoIcjcwzjBEKSIvmz-n4-12" target="PoIcjcwzjBEKSIvmz-n4-12">
          <mxGeometry relative="1" as="geometry" />
        </mxCell>
        <mxCell id="PoIcjcwzjBEKSIvmz-n4-19" style="edgeStyle=orthogonalEdgeStyle;rounded=0;orthogonalLoop=1;jettySize=auto;html=1;entryX=0.5;entryY=1;entryDx=0;entryDy=0;dashed=1;endArrow=block;endFill=0;" edge="1" parent="1" source="PoIcjcwzjBEKSIvmz-n4-15" target="PoIcjcwzjBEKSIvmz-n4-12">
          <mxGeometry relative="1" as="geometry" />
        </mxCell>
        <mxCell id="PoIcjcwzjBEKSIvmz-n4-15" value="Aluno" style="swimlane;fontStyle=1;align=center;verticalAlign=top;childLayout=stackLayout;horizontal=1;startSize=26;horizontalStack=0;resizeParent=1;resizeParentMax=0;resizeLast=0;collapsible=1;marginBottom=0;whiteSpace=wrap;html=1;" vertex="1" parent="1">
          <mxGeometry x="300" y="572" width="270" height="110" as="geometry" />
        </mxCell>
        <mxCell id="PoIcjcwzjBEKSIvmz-n4-16" value="- gradeCurricular : ArrayList" style="text;strokeColor=none;fillColor=none;align=left;verticalAlign=top;spacingLeft=4;spacingRight=4;overflow=hidden;rotatable=0;points=[[0,0.5],[1,0.5]];portConstraint=eastwest;whiteSpace=wrap;html=1;" vertex="1" parent="PoIcjcwzjBEKSIvmz-n4-15">
          <mxGeometry y="26" width="270" height="34" as="geometry" />
        </mxCell>
        <mxCell id="PoIcjcwzjBEKSIvmz-n4-17" value="" style="line;strokeWidth=1;fillColor=none;align=left;verticalAlign=middle;spacingTop=-1;spacingLeft=3;spacingRight=3;rotatable=0;labelPosition=right;points=[];portConstraint=eastwest;strokeColor=inherit;" vertex="1" parent="PoIcjcwzjBEKSIvmz-n4-15">
          <mxGeometry y="60" width="270" height="8" as="geometry" />
        </mxCell>
        <mxCell id="PoIcjcwzjBEKSIvmz-n4-18" value="&lt;div&gt;- matricularEmDisciplina(Disciplina) : void)&lt;/div&gt;&lt;div&gt;- cancelarMatriculaDisciplina(Disciplina) : void&lt;br&gt;&lt;/div&gt;" style="text;strokeColor=none;fillColor=none;align=left;verticalAlign=top;spacingLeft=4;spacingRight=4;overflow=hidden;rotatable=0;points=[[0,0.5],[1,0.5]];portConstraint=eastwest;whiteSpace=wrap;html=1;" vertex="1" parent="PoIcjcwzjBEKSIvmz-n4-15">
          <mxGeometry y="68" width="270" height="42" as="geometry" />
        </mxCell>
      </root>
    </mxGraphModel>
  </diagram>
</mxfile>
